<svg width="90" height="90" viewBox="0 0 90 90" xmlns="http://www.w3.org/2000/svg">
    <defs>
        <clipPath id="urfwtl07pa">
            <path d="M1440 0v720H0V0h1440z" />
        </clipPath>
        <clipPath id="eaemomtseb">
            <path d="m60.375 0 .139.007c.412.044.783.281.995.644l19.687 33.75.071.14c.165.38.141.82-.07 1.183l-19.688 33.75-.076.116a1.313 1.313 0 0 1-1.058.535H21l-.139-.007a1.313 1.313 0 0 1-.995-.644L.18 35.724l-.07-.14c-.166-.38-.142-.82.07-1.183L19.866.651l.077-.116A1.313 1.313 0 0 1 21 0h39.375z" />
        </clipPath>
        <clipPath id="37peesp6gd">
            <path d="M2.219 0a2.219 2.219 0 1 1 0 4.437 2.219 2.219 0 0 1 0-4.437z" />
        </clipPath>
        <clipPath id="nvn0imlrhf">
            <path d="M2.625 0v27.125H0V0h2.625z" />
        </clipPath>
        <clipPath id="1jbi65fmsh">
            <path
                d="m60.375 0 .139.007c.412.044.783.281.995.644l19.687 33.75.071.14c.165.38.141.82-.07 1.183l-19.688 33.75-.076.116a1.313 1.313 0 0 1-1.058.535H21l-.139-.007a1.313 1.313 0 0 1-.995-.644L.18 35.724l-.07-.14c-.166-.38-.142-.82.07-1.183L19.866.651l.077-.116A1.313 1.313 0 0 1 21 0h39.375zM58.76 2.625H22.615a1.5 1.5 0 0 0-1.296.744L3.273 34.307a1.5 1.5 0 0 0 0 1.511l18.046 30.938a1.5 1.5 0 0 0 1.296.744H58.76a1.5 1.5 0 0 0 1.296-.744l18.046-30.938a1.5 1.5 0 0 0 0-1.511L60.056 3.369a1.5 1.5 0 0 0-1.296-.744z" />
        </clipPath>
        <filter id="gj4gehw1ne" x="-55.556%" y="-55.556%" filterUnits="userSpaceOnUse" width="166.667%" height="166.667%">
            <feGaussianBlur stdDeviation=".5" in="SourceAlpha" result="i5" />
            <feOffset dy="1" in="i5" result="i6" />
            <feColorMatrix values="0 0 0 1.0 0 0 0 0 1.0 0 0 0 0 1.0 0 0 0 0 0.25 0" in="i6" />
        </filter>
        <filter id="5nj3p3xr7g" x="-71.429%" y="-15.625%" filterUnits="userSpaceOnUse" width="185.714%" height="118.75%">
            <feGaussianBlur stdDeviation=".5" in="SourceAlpha" result="i9" />
            <feOffset dy="1" in="i9" result="i10" />
            <feColorMatrix values="0 0 0 1.0 0 0 0 0 1.0 0 0 0 0 1.0 0 0 0 0 0.25 0" in="i10" />
        </filter>
        <filter id="4mczditori" x="-5.814%" y="-6.667%" filterUnits="userSpaceOnUse" width="106.977%" height="108%">
            <feGaussianBlur stdDeviation=".5" in="SourceAlpha" result="i13" />
            <feOffset dy="1" in="i13" result="i14" />
            <feColorMatrix values="0 0 0 1.0 0 0 0 0 1.0 0 0 0 0 1.0 0 0 0 0 0.25 0" in="i14" />
        </filter>
        <linearGradient id="2xfcu7eehc" x1="40.688" y1="0" x2="40.688" y2="35.063" gradientUnits="userSpaceOnUse">
            <stop stop-color="#E8EAF7" offset="0%" />
            <stop stop-color="#FFF" offset="100%" />
        </linearGradient>
    </defs>
    <g clip-path="url(#urfwtl07pa)" transform="translate(-675 -203)">
        <g clip-path="url(#eaemomtseb)" transform="translate(679.312 212.938)">
            <path fill="url(#2xfcu7eehc)" d="M0 0h81.375v70.125H0V0z" />
        </g>
        <g clip-path="url(#37peesp6gd)" transform="translate(717.781 264.063)">
            <path fill="#2D2F3D" d="M0 0h4.438v4.438H0V0z" />
            <path d="M6-2v7h-7v-7h7zM2.219 0a2.219 2.219 0 1 0 0 4.437 2.219 2.219 0 0 0 0-4.437z" filter="url(#gj4gehw1ne)" />
        </g>
        <g clip-path="url(#nvn0imlrhf)" transform="translate(718.687 227)">
            <path fill="#2D2F3D" d="M0 0h2.625v27.125H0V0z" />
            <path d="M4-2v30h-5V-2h5zM2.625 0H0v27.125h2.625V0z" filter="url(#5nj3p3xr7g)" />
        </g>
        <g clip-path="url(#1jbi65fmsh)" transform="translate(679.312 212.938)">
            <path fill="#2D2F3D" d="M0 0h81.375v70.125H0V0z" />
            <path
                d="M83-2v73H-1V-2h84zM60.375 0H21c-.42 0-.812.2-1.057.535l-.077.116L.18 34.401a1.313 1.313 0 0 0-.07 1.183l.07.14 19.687 33.75c.212.363.583.6.995.644l.14.007h39.374c.42 0 .812-.2 1.058-.535l.076-.116 19.687-33.75c.212-.363.236-.803.071-1.183l-.07-.14L61.508.651a1.313 1.313 0 0 0-.995-.644L60.375 0zM58.76 2.625a1.5 1.5 0 0 1 1.296.744l18.046 30.938a1.5 1.5 0 0 1 0 1.511L60.056 66.756a1.5 1.5 0 0 1-1.296.744H22.615a1.5 1.5 0 0 1-1.296-.744L3.273 35.818a1.5 1.5 0 0 1 0-1.511L21.319 3.369a1.5 1.5 0 0 1 1.296-.744H58.76z"
                filter="url(#4mczditori)" />
        </g>
    </g>
</svg>