<svg width="223" height="217" viewBox="0 0 223 217" xmlns="http://www.w3.org/2000/svg" xmlns:xlink="http://www.w3.org/1999/xlink">
    <defs>
        <path id="rncbqglvha" d="M0 0h223v217H0z"/>
        <path id="g8s6pg1snc" d="m61.9 144.154 78 38.829-9-12.983-69-34.594z"/>
        <path d="m153.9-15.332 69 23.063-65.01 40.742a57.554 57.554 0 0 0-26.99 48.768v2.742l-69-28.829 1.396-8.402A57.554 57.554 0 0 1 90.4 22.872l27.562-16.583L188.4 29.353 222.9 7.73l-69-23.063z" id="u70drkbxre"/>
        <path d="M65.9 20.445c7.208 1.802 13.5 3.5 21 7s16.5 9 24.5 23.5c5.237 9.494 7.581 22.364 7.032 38.61-.223-13.62-5.754-29.048-16.395-42.668-13.548-17.34-31.944-27.353-48.043-27.838l-.095-.104c3.194-.202 7.194.298 12 1.5z" id="mhk33pozrn"/>
        <radialGradient cx="50%" cy="50%" fx="50%" fy="50%" r="71.687%" gradientTransform="matrix(0 .69748 -.6982 0 .85 .151)" id="3g1diow30h">
            <stop stop-color="#EEE" offset="0%"/>
            <stop stop-color="#F5F6F7" offset="89.354%"/>
            <stop stop-color="#E6E7ED" offset="100%"/>
        </radialGradient>
        <radialGradient cx="50%" cy="0%" fx="50%" fy="0%" r="143.373%" gradientTransform="matrix(0 .69748 -.40212 0 .5 -.349)" id="8zo18745bj">
            <stop stop-color="#FFF" offset="0%"/>
            <stop stop-color="#FFF" stop-opacity="0" offset="100%"/>
        </radialGradient>
        <radialGradient cx="50%" cy="0%" fx="50%" fy="0%" r="143.836%" gradientTransform="matrix(0 .69524 -.54705 0 .5 -.348)" id="nf6axh84xk">
            <stop stop-color="#FEFEFE" offset="0%"/>
            <stop stop-color="#F5F6F7" offset="100%"/>
        </radialGradient>
        <linearGradient x1="52.404%" y1="51.374%" x2="50%" y2="54.72%" id="w799221e7d">
            <stop stop-color="#F5F6F7" offset="0%"/>
            <stop stop-color="#E6E7ED" offset="100%"/>
        </linearGradient>
        <linearGradient x1="25.387%" y1="56.467%" x2="20.472%" y2="62.44%" id="j6spaxds0f">
            <stop stop-color="#FFF" offset="0%"/>
            <stop stop-color="#F5F6F7" offset="100%"/>
        </linearGradient>
        <linearGradient x1="88.112%" y1="60.178%" x2="82.98%" y2="62.442%" id="2tatihcyyo">
            <stop stop-color="#D7D9E4" offset="0%"/>
            <stop stop-color="#E6E7ED" offset="100%"/>
        </linearGradient>
        <ellipse id="pmd3cmc49i" cx="69.334" cy="72.437" rx="41.5" ry="59.5"/>
        <ellipse id="lld5p4kbjl" cx="48.402" cy="50.557" rx="29" ry="41.5"/>
        <filter x="-19.5%" y="-18.6%" width="138.9%" height="137.3%" filterUnits="objectBoundingBox" id="5onkwcq72g">
            <feOffset dx="6" dy="7" in="SourceAlpha" result="shadowOffsetOuter1"/>
            <feGaussianBlur stdDeviation="3.5" in="shadowOffsetOuter1" result="shadowBlurOuter1"/>
            <feColorMatrix values="0 0 0 0 0 0 0 0 0 0 0 0 0 0 0 0 0 0 0.03 0" in="shadowBlurOuter1" result="shadowMatrixOuter1"/>
            <feMerge>
                <feMergeNode in="shadowMatrixOuter1"/>
                <feMergeNode in="SourceGraphic"/>
            </feMerge>
        </filter>
    </defs>
    <g fill="none" fill-rule="evenodd">
        <mask id="5k0xp2pxub" fill="#fff">
            <use xlink:href="#rncbqglvha"/>
        </mask>
        <g mask="url(#5k0xp2pxub)">
            <g transform="translate(0 7)">
                <path fill="#F5F6F7" d="m61.9 71.154 69 28.829V170l-69-34.594z"/>
                <use fill="#F5F6F7" xlink:href="#g8s6pg1snc"/>
                <use fill="url(#w799221e7d)" xlink:href="#g8s6pg1snc"/>
                <path d="m157.89 48.473 31.524-19.757c10.235-6.414 23.732-3.317 30.146 6.918a21.87 21.87 0 0 1 3.34 11.614v81.563l-69.586 52.332c-6.18 4.647-14.957 3.405-19.604-2.774a14 14 0 0 1-2.81-8.415V97.241a57.554 57.554 0 0 1 26.99-48.768z" fill="#E6E7ED"/>
                <ellipse fill="#FFF" transform="rotate(22 179.66 100.448)" cx="179.66" cy="100.448" rx="22.5" ry="40"/>
                <path d="m172.653 70.77 15.847 4.743-.16-.03c-7.503-1.365-17.158 7.05-22.349 19.898-5.36 13.267-4.013 26.44 2.892 30.225l.203.108-14.968-6.862c-.63-7.718.785-16.942 4.435-26.218l.245-.615c3.525-8.724 8.46-16.06 13.855-21.248z" fill="#F5F6F7"/>
                <ellipse fill="#E6E7ED" transform="rotate(22 179.9 101)" cx="179.899" cy="101" rx="15" ry="27"/>
                <use fill="#FFF" xlink:href="#u70drkbxre"/>
                <use fill="url(#j6spaxds0f)" xlink:href="#u70drkbxre"/>
                <path d="M123.2 3.138a21.87 21.87 0 0 1 19.095-1.684l64.531 24.706a21.813 21.813 0 0 0-17.412 2.556l-4.883 3.06L117.96 6.29z" fill="#FFF"/>
                <g filter="url(#5onkwcq72g)" transform="translate(0 63.555)">
                    <g transform="rotate(-38 69.334 72.437)">
                        <use fill="url(#3g1diow30h)" xlink:href="#pmd3cmc49i"/>
                        <use fill="url(#8zo18745bj)" xlink:href="#pmd3cmc49i"/>
                    </g>
                    <ellipse fill="url(#nf6axh84xk)" transform="rotate(-38 69.4 72.945)" cx="69.399" cy="72.945" rx="36.5" ry="52.5"/>
                    <ellipse fill="#E6E7ED" transform="rotate(-38 68.9 71.945)" cx="68.899" cy="71.945" rx="29" ry="41.5"/>
                    <g transform="translate(20.497 21.388)">
                        <mask id="q30iae3idm" fill="#fff">
                            <use xlink:href="#lld5p4kbjl" transform="rotate(-38 48.402 50.557)"/>
                        </mask>
                        <ellipse fill="#DCDDE3" mask="url(#q30iae3idm)" transform="rotate(-38 59.536 44.232)" cx="59.536" cy="44.232" rx="28" ry="36.5"/>
                        <ellipse fill="#D1D3DC" mask="url(#q30iae3idm)" transform="rotate(-38 68.227 38.815)" cx="68.227" cy="38.815" rx="24" ry="26.5"/>
                    </g>
                    <use fill="#E6E7ED" xlink:href="#mhk33pozrn"/>
                    <use fill="url(#2tatihcyyo)" xlink:href="#mhk33pozrn"/>
                </g>
            </g>
        </g>
    </g>
</svg>
