<?xml version="1.0" encoding="UTF-8"?><svg version="1.1" width="20px" height="21px" viewBox="0 0 20.0 21.0" xmlns="http://www.w3.org/2000/svg" xmlns:xlink="http://www.w3.org/1999/xlink"><defs><clipPath id="i0"><path d="M1440,0 L1440,720 L0,720 L0,0 L1440,0 Z"></path></clipPath><clipPath id="i1"><path d="M9.71560799,0 C9.94043165,0 10.1556597,0.0835531156 10.3169432,0.235462887 L14.3423515,4.02691588 C14.5071943,4.18217809 14.6,4.39425923 14.6,4.61794872 L14.6,15.921368 C14.6,16.5766726 14.0443797,17.1 13.3671506,17.1 L1.23284936,17.1 C0.555620326,17.1 0,16.5766726 0,15.921368 L0,1.17863248 C0,0.523327863 0.555620326,0 1.23284936,0 L9.71560799,0 Z M8.996,1.282 L1.325,1.283 L1.325,15.816 L13.274,15.816 L13.274,5.332 L10.6466425,5.33290598 C9.73537263,5.33290598 8.99664247,4.59417582 8.99664247,3.68290598 L8.996,1.282 Z M11.0885658,12.795299 C11.5198174,12.795299 11.8740206,13.128916 11.8782214,13.544872 C11.8782214,13.9604578 11.5236253,14.294444 11.0885658,14.294444 L3.51506307,14.294444 C3.08000366,14.294444 2.72540789,13.9604579 2.72540789,13.544872 C2.72540789,13.1292861 3.08000366,12.795299 3.51506307,12.795299 L11.0885658,12.795299 Z M9.43702405,10.496153 C9.87072801,10.496153 10.2224663,10.8286584 10.2266783,11.245726 C10.2266783,11.661312 9.87208332,11.995298 9.43702405,11.995298 L5.16297641,11.995298 C4.727917,11.995298 4.37332123,11.6613119 4.37332123,11.245726 C4.37332123,10.8301401 4.727917,10.496153 5.16297641,10.496153 L9.43702405,10.496153 Z M11.0885658,8.197008 C11.5198174,8.197008 11.8740206,8.53062504 11.8782214,8.946581 C11.8782214,9.36216681 11.5236253,9.696153 11.0885658,9.696153 L3.51506307,9.696153 C3.08000366,9.696153 2.72540789,9.36216687 2.72540789,8.946581 C2.72540789,8.53099513 3.08000366,8.197008 3.51506307,8.197008 L11.0885658,8.197008 Z M9.43702405,5.897863 C9.87190693,5.897863 10.2224829,6.22806454 10.2266783,6.647436 C10.2266783,7.06302199 9.87208332,7.397008 9.43702405,7.397008 L5.16297641,7.397008 C4.727917,7.397008 4.37332123,7.06302187 4.37332123,6.647436 C4.37332123,6.23185013 4.727917,5.897863 5.16297641,5.897863 L9.43702405,5.897863 Z M10.296,2.007 L10.2966425,3.68290598 C10.2966425,3.87620565 10.4533428,4.03290598 10.6466425,4.03290598 L12.447,4.032 L10.296,2.007 Z"></path></clipPath></defs><g transform="translate(-834.0 -122.0)"><g clip-path="url(#i0)"><g transform="translate(257.0 100.0)"><g transform="translate(468.0 10.0)"><g transform="translate(109.0 12.499999999999822)"><g transform="translate(2.7000000000000446 1.449999999999818)"><g clip-path="url(#i1)"><polygon points="0,0 14.6,0 14.6,17.1 0,17.1 0,0" stroke="none" fill="#0A3153"></polygon></g></g></g></g></g></g></g></svg>