<svg width="24" height="24" viewBox="0 0 24 24" xmlns="http://www.w3.org/2000/svg">
    <defs>
        <clipPath id="0s3028ttea">
            <path d="M1440 0v650H0V0h1440z"/>
        </clipPath>
        <clipPath id="18yxryjl1b">
            <path d="m16.968 13.271.314.011.255.024c.347.042.72.123 1.116.244l.438.146-.353 1.348-.325-.11c-.578-.189-1.06-.284-1.441-.284-.337 0-.607.063-.805.2a.595.595 0 0 0-.278.518c0 .24.084.43.26.573.125.102.32.196.577.285l.19.061.493.138c.638.19 1.093.44 1.378.748.324.35.488.83.488 1.445 0 .741-.252 1.31-.751 1.705-.494.39-1.195.588-2.113.588a5.54 5.54 0 0 1-1.1-.115l-.393-.092-.693-.207v.343H9.49v-7.478h1.651v6.136h3.112l.134-.42.292.103c.359.123.66.212.902.266.288.065.56.097.819.097.358 0 .64-.073.839-.23.192-.152.284-.36.284-.625a.719.719 0 0 0-.119-.425c-.084-.12-.225-.222-.417-.313a4.201 4.201 0 0 0-.671-.234l-.435-.114c-.568-.164-.985-.398-1.261-.702-.314-.345-.473-.8-.473-1.366 0-.72.25-1.28.746-1.674.436-.347 1.025-.542 1.775-.582l.299-.008zM8.942.001l.102.006a.81.81 0 0 1 .295.1l.114.075.076.07 5.16 5.16.068.078a.81.81 0 0 1 .137.28l.028.132.005.104-.002 4.483h-1.618l.001-2.958-4.367.002-.143-.007a1.55 1.55 0 0 1-1.33-1.074l-.043-.165-.025-.158-.007-.16V1.616H1.619v17.606h.37l-.003 1.618h-.437l-.144-.007a1.553 1.553 0 0 1-1.369-1.225l-.028-.172L0 19.276V1.548l.007-.144A1.553 1.553 0 0 1 1.232.035l.172-.028L1.565 0h7.377zM4.314 13.361l1.41 2.564 1.41-2.564h1.89l-2.103 3.606 2.311 3.872H7.265l-1.54-2.81-1.542 2.81h-1.97l2.322-3.869-2.113-3.609h1.892zm4.698-11.34v3.891h3.89l-3.89-3.89z"/>
        </clipPath>
    </defs>
    <g clip-path="url(#0s3028ttea)" transform="translate(-485 -435)">
        <g clip-path="url(#18yxryjl1b)" transform="translate(489.425 436.425)">
            <path fill="#696C80" d="M0 0h19.275v20.911H0V0z"/>
        </g>
    </g>
</svg>
