<svg version="1.1" width="20px" height="20px" viewBox="0 0 20.0 20.0" xmlns="http://www.w3.org/2000/svg" xmlns:xlink="http://www.w3.org/1999/xlink"><defs><clipPath id="i0"><path d="M13.721,18.13 L15.412,19.87 L11.13,19.87 L11.13,18.13 L13.721,18.13 Z M19.86,18.13 L19.86,19.87 L15.446,19.87 L17.237,18.13 L19.86,18.13 Z M11.5,0 C12.3284271,0 13,0.671572875 13,1.5 L13,5.563 L14.783,5.564 C15.6102612,5.564 16.2895907,6.1973706 16.3625185,7.00564167 L16.369,7.15 L16.3687615,15.194 L17.343399,14.321378 L18.472523,15.549497 L15.4492641,18.4737615 L12.525,15.450503 L13.753091,14.32135 L14.6297615,15.194 L14.697,8.749 L14.696,7.235 L13,7.235 L13,11.5 C13,12.3284271 12.3284271,13 11.5,13 L11.334,13 L11.335,13.75 C11.335,14.5767396 10.7020287,15.2556408 9.89426731,15.3285226 L9.75,15.335 L3.25,15.335 C2.42326041,15.335 1.74435918,14.7020287 1.67147738,13.8942673 L1.665,13.75 L1.664,13 L1.5,13 C0.671572875,13 0,12.3284271 0,11.5 L0,1.5 C0,0.671572875 0.671572875,0 1.5,0 L11.5,0 Z M9.664,13 L3.334,13 L3.335,13.665 L9.665,13.665 L9.664,13 Z M11.4,1.6 L1.6,1.6 L1.6,11.4 L11.4,11.4 L11.4,1.6 Z M5.882,4.03 L6.602,5.227 L7.322,4.03 L9.131,4.03 L7.529,6.433 L9.167,8.899 L7.331,8.899 L6.575,7.648 L5.81,8.899 L4.01,8.899 L5.648,6.442 L4.037,4.03 L5.882,4.03 Z"></path></clipPath></defs><g clip-path="url(#i0)"><polygon points="0,0 19.86,0 19.86,19.87 0,19.87 0,0" stroke="none" fill="#000000"></polygon></g></svg>