<svg width="20" height="20" viewBox="0 0 20 20" xmlns="http://www.w3.org/2000/svg">
    <defs>
        <clipPath id="hyz1grg9ba">
            <path d="M1440 0v750H0V0h1440z"/>
        </clipPath>
        <clipPath id="3ur3k17u0b">
            <path d="M15.444 12.64c.86 0 1.556.705 1.556 1.573v4.214c0 .869-.696 1.573-1.556 1.573H1.556C.696 20 0 19.296 0 18.427v-4.214c0-.868.696-1.573 1.556-1.573h13.888zm-.166 1.742H1.722v3.876h13.556v-3.876zm-1.917 1.067c.476 0 .861.39.861.871s-.385.871-.86.871a.866.866 0 0 1-.862-.87c0-.482.386-.872.861-.872zm-2.083 0 .166.169v1.404l-.166.169H2.944l-.166-.169v-1.404l.166-.169h8.334zM9.194 0l.167.169v8.14l2.209-2.227h.235l.98.99v.238l-4.167 4.214h-.236L4.215 7.31v-.238l.98-.99h.235L7.64 8.31V.17L7.806 0h1.388z"/>
        </clipPath>
    </defs>
    <g clip-path="url(#hyz1grg9ba)" transform="translate(-618 -207)">
        <g clip-path="url(#3ur3k17u0b)" transform="translate(619.5 207)">
            <path fill="#2C97DD" d="M0 0h17v20H0V0z"/>
        </g>
    </g>
</svg>
