<svg width="93" height="36" viewBox="0 0 93 36" xmlns="http://www.w3.org/2000/svg">
    <g fill="#AEB2C2" fill-rule="evenodd">
        <path d="M13.39 10.995c0-1.448.279-2.807.836-4.076a10.716 10.716 0 0 1 2.273-3.332 10.804 10.804 0 0 1 3.355-2.257A10.221 10.221 0 0 1 23.958.5h2.243c1.947 0 3.526 1.568 3.526 3.502 0 1.935-1.579 3.503-3.526 3.503h-2.243a3.491 3.491 0 0 0-2.495 1.013 3.462 3.462 0 0 0-1.02 2.477c0 .488.09.948.27 1.38a3.423 3.423 0 0 0 1.869 1.866c.426.18.884.269 1.376.269h7.053c1.458 0 2.83.272 4.117.817a10.597 10.597 0 0 1 3.367 2.246 10.516 10.516 0 0 1 2.26 3.344c.55 1.277.824 2.64.824 4.088a10.16 10.16 0 0 1-.823 4.076 10.551 10.551 0 0 1-2.261 3.331 10.756 10.756 0 0 1-3.367 2.258c-1.287.553-2.659.83-4.117.83H19.392c-1.947 0-3.526-1.568-3.526-3.502 0-1.935 1.579-3.503 3.526-3.503h11.62a3.512 3.512 0 0 0 2.494-1.013 3.459 3.459 0 0 0 1.02-2.477 3.455 3.455 0 0 0-2.138-3.222 3.52 3.52 0 0 0-1.377-.268h-7.053c-1.458 0-2.826-.277-4.104-.83a10.797 10.797 0 0 1-3.355-2.258 10.673 10.673 0 0 1-2.273-3.344 10.11 10.11 0 0 1-.836-4.088"/>
        <path d="M38.396 4.012c0 1.932-1.577 3.499-3.523 3.499-1.946 0-3.523-1.567-3.523-3.499 0-1.932 1.577-3.5 3.523-3.5 1.946 0 3.523 1.568 3.523 3.5M73.855 32.45c0 .868-.286 1.592-.856 2.175-.57.584-1.292.875-2.164.875-.873 0-1.594-.291-2.164-.875-.571-.583-.856-1.307-.856-2.174V18.305c0-.866.285-1.591.856-2.175.57-.582 1.291-.874 2.164-.874.872 0 1.593.292 2.164.874.57.584.856 1.309.856 2.175V32.45zM70.835 7.511a3.01 3.01 0 0 1 3.02 3c0 1.656-1.352 2.998-3.02 2.998a3.01 3.01 0 0 1-3.02-2.999c0-1.656 1.352-2.999 3.02-2.999M63.107 7.511c.873 0 1.594.292 2.165.875.57.583.855 1.308.855 2.174v13.404c0 3.533-.99 6.332-2.97 8.398-1.98 2.066-4.831 3.099-8.556 3.099-3.724 0-6.568-1.033-8.531-3.099-1.963-2.066-2.944-4.865-2.944-8.398V10.56c0-.866.284-1.59.855-2.174.57-.583 1.292-.875 2.165-.875.872 0 1.593.292 2.164.875.57.583.855 1.308.855 2.174v13.404c0 2.033.454 3.541 1.36 4.524.905.983 2.264 1.474 4.076 1.474 1.845 0 3.222-.49 4.127-1.474.906-.983 1.36-2.49 1.36-4.524V10.56c0-.866.284-1.59.855-2.174.57-.583 1.292-.875 2.164-.875"/>
        <path d="M54.627 22.582a3.01 3.01 0 0 1 3.02 2.999c0 1.656-1.353 2.999-3.02 2.999a3.01 3.01 0 0 1-3.02-3c0-1.656 1.352-2.998 3.02-2.998M85.861 35.5a10.08 10.08 0 0 1-4.008-.803 10.45 10.45 0 0 1-3.287-2.204 10.369 10.369 0 0 1-2.22-3.265 9.892 9.892 0 0 1-.808-3.98V10.427a2.921 2.921 0 0 1 2.93-2.911 2.921 2.921 0 0 1 2.932 2.91v2.191h1.125a2.921 2.921 0 0 1 2.931 2.911 2.921 2.921 0 0 1-2.93 2.911H81.4v6.807c0 .614.115 1.188.345 1.723a4.4 4.4 0 0 0 .948 1.402c.402.4.877.717 1.423.953a4.36 4.36 0 0 0 1.745.353h3.553a2.921 2.921 0 0 1 2.93 2.911 2.921 2.921 0 0 1-2.93 2.911H85.86zM90.065 12.606A2.925 2.925 0 0 1 93 15.52a2.925 2.925 0 0 1-2.935 2.915 2.925 2.925 0 0 1-2.935-2.915 2.925 2.925 0 0 1 2.935-2.914M2.538 35.315V34c0-.11.074-.185.186-.185h8.469c.111 0 .185.074.185.185v1.315c0 .111-.074.185-.185.185h-8.47c-.11 0-.185-.074-.185-.185M.83 35.488a.827.827 0 0 1-.83-.824c0-.443.36-.824.83-.824s.83.381.83.824c0 .443-.36.824-.83.824M11.367 30.495c-.186.96-.706 1.77-1.288 2.189-.086.061-.173.061-.26-.012l-.804-.726c-.087-.074-.1-.172-.013-.27.52-.603.842-1.168.842-1.93 0-.714-.396-1.292-1.015-1.292-1.535 0-1.053 4.02-3.888 4.02-1.51 0-2.427-1.278-2.427-2.692 0-1.057.458-1.93 1.152-2.619.087-.086.16-.086.26-.012l.83.688c.098.074.11.16.037.259-.47.59-.694 1.032-.694 1.647 0 .676.372 1.095.88 1.095 1.522 0 .878-4.034 3.887-4.034 1.424 0 2.315 1.132 2.513 2.41M2.7 20.56h1.127c.111 0 .185.074.185.184v1.857h7.18c.112 0 .186.074.186.184v1.316c0 .11-.074.185-.185.185h-7.18v1.856c0 .11-.075.185-.186.185H2.7c-.111 0-.186-.074-.186-.185v-5.398c0-.11.075-.184.186-.184M10.066 14.51h1.127c.111 0 .185.074.185.184v4.525c0 .11-.074.185-.185.185H2.7c-.111 0-.186-.074-.186-.185v-4.512c0-.111.075-.185.186-.185h1.127c.111 0 .186.074.186.185v3.012h2.043v-2.828c0-.11.074-.184.185-.184h1.127c.111 0 .186.073.186.184v2.828H9.88v-3.025c0-.11.074-.184.186-.184M11.38 29.217h.619c.355 0 .643.286.643.639 0 .353-.288.64-.643.64h-.632"/>
    </g>
</svg>
