<svg
  width="60"
  height="60"
  viewBox="0 0 60 60"
  fill="none"
  xmlns="http://www.w3.org/2000/svg"
>
  <rect x="0.5" y="0.5" width="59" height="59" rx="29.5" stroke="#EBEAEE" />
  <rect x="3" y="3" width="54" height="54" rx="27" fill="#F5F6F8" />
  <path
    fill-rule="evenodd"
    clip-rule="evenodd"
    d="M35.1406 25C35.1406 27.7614 32.902 30 30.1406 30C27.3791 30 25.1406 27.7614 25.1406 25C25.1406 22.2386 27.3791 20 30.1406 20C32.902 20 35.1406 22.2386 35.1406 25ZM36.1406 25C36.1406 28.3137 33.4543 31 30.1406 31C26.8268 31 24.1406 28.3137 24.1406 25C24.1406 21.6863 26.8268 19 30.1406 19C33.4543 19 36.1406 21.6863 36.1406 25ZM22.6701 41.002C23.1572 40.889 23.1573 40.8893 23.1573 40.8894L23.1568 40.887L23.1537 40.873C23.1509 40.8598 23.1466 40.839 23.1411 40.8109C23.1302 40.7549 23.1149 40.6704 23.0983 40.5615C23.0651 40.3434 23.0271 40.029 23.0097 39.6508C22.9746 38.8905 23.0234 37.8931 23.3442 36.9068C23.663 35.9267 24.2476 34.9638 25.2882 34.2409C26.3313 33.5162 27.8768 33.002 30.1702 33.002C32.4635 33.0019 34.009 33.5159 35.0521 34.2406C36.0926 34.9634 36.6773 35.9264 36.9961 36.9065C37.3169 37.8928 37.3656 38.8904 37.3306 39.6507C37.3131 40.029 37.2752 40.3434 37.242 40.5615C37.2254 40.6704 37.2101 40.7549 37.1992 40.8109C37.1937 40.839 37.1894 40.8598 37.1866 40.873L37.1835 40.887L37.183 40.8895C37.183 40.8893 37.1831 40.889 37.6701 41.002C38.1572 41.1149 38.1573 41.1146 38.1574 41.1143L38.1575 41.1135L38.158 41.1113L38.1595 41.1046L38.1644 41.0821C38.1685 41.0631 38.1741 41.0363 38.1807 41.002C38.1941 40.9336 38.2118 40.8355 38.2306 40.7119C38.2682 40.4652 38.3102 40.1155 38.3295 39.6968C38.3679 38.8634 38.3174 37.7358 37.947 36.5972C37.5746 35.4522 36.8762 34.2901 35.6226 33.4193C34.3716 32.5502 32.612 32.0019 30.1701 32.002C27.7282 32.0021 25.9686 32.5505 24.7177 33.4196C23.4641 34.2905 22.7657 35.4525 22.3933 36.5974C22.0229 37.7361 21.9723 38.8635 22.0108 39.6969C22.0301 40.1156 22.0721 40.4652 22.1097 40.712C22.1285 40.8355 22.1462 40.9336 22.1595 41.002C22.1662 41.0363 22.1718 41.0632 22.1758 41.0821L22.1807 41.1046L22.1822 41.1113L22.1827 41.1135L22.1829 41.1143C22.183 41.1146 22.1831 41.1149 22.6701 41.002Z"
    fill="#9B9EAC"
  />
</svg>
