<svg version="1.1" width="14px" height="14px" viewBox="0 0 14.0 14.0" xmlns="http://www.w3.org/2000/svg" xmlns:xlink="http://www.w3.org/1999/xlink"><defs><clipPath id="i0"><path d="M1440,0 L1440,650 L0,650 L0,0 L1440,0 Z"></path></clipPath><clipPath id="i1"><path d="M7.83416667,12.1528964 C7.83416667,13.1750886 6.81418872,14 5.91155275,14 C5.00889074,14 3.98416667,13.1750886 3.98416667,12.1528964 Z M6.71458464,0 L6.71458464,0.824937487 C8.68327603,1.17962075 10.1737428,2.89523859 10.1737428,4.95558971 L10.4708333,9.15203688 L11.6358013,9.15203688 C11.7892187,9.15203688 11.916745,9.27755782 11.9128508,9.43295478 L11.9128508,10.9274068 C11.9128508,11.0828298 11.7872382,11.2083767 11.6317892,11.2083767 L0.280943833,11.2083767 C0.125520829,11.2083767 0,11.0828298 0,10.9274068 L0,9.43295478 C0,9.27753178 0.125520829,9.15203688 0.280943833,9.15203688 L1.4525,9.15203688 L1.74305411,4.95558971 C1.74305411,2.89523859 3.23750608,1.17962075 5.20419185,0.824937487 L5.20419185,0 L6.71458464,0 Z"></path></clipPath></defs><g transform="translate(-1377.0 -45.0)"><g clip-path="url(#i0)"><g transform="translate(1205.0 16.0)"><g transform="translate(171.9999999999998 29.0)"><g transform="translate(1.0441666666665697 0.0)"><g clip-path="url(#i1)"><polygon points="0,0 11.9129377,0 11.9129377,14 0,14 0,0" stroke="none" fill="#1F9BA5"></polygon></g></g></g></g></g></g></svg>