<svg width="24" height="25" viewBox="0 0 24 25" xmlns="http://www.w3.org/2000/svg">
    <defs>
        <clipPath id="05r2iw2pka">
            <path d="M1440 0v1002H0V0h1440z"/>
        </clipPath>
        <clipPath id="xukzfcydmb">
            <path d="M10.5 0C16.35 0 21 4.65 21 10.5S16.35 21 10.5 21 0 16.35 0 10.5 4.65 0 10.5 0zm0 13.8c-.6 0-1.2.45-1.2 1.2s.45 1.2 1.2 1.2c.6 0 1.2-.45 1.2-1.2s-.6-1.2-1.2-1.2zm.75-9.3h-1.5V12h1.5V4.5z"/>
        </clipPath>
    </defs>
    <g clip-path="url(#05r2iw2pka)" transform="translate(-35 -690)">
        <g clip-path="url(#xukzfcydmb)" transform="translate(36.5 692)">
            <path fill="#AF214E" d="M0 0h21v21H0V0z"/>
        </g>
    </g>
</svg>
