<svg width="20" height="20" viewBox="0 0 20 20" xmlns="http://www.w3.org/2000/svg">
    <defs>
        <clipPath id="xrg58xtwua">
            <path d="M1440 0v734H0V0h1440z"/>
        </clipPath>
        <clipPath id="qgktk2k1ib">
            <path d="m.884 0 15.833 15.833-.884.884-3.238-3.237c-1.327.887-2.742 1.337-4.236 1.337-2.032 0-3.917-.831-5.636-2.465l-.223-.218.884-.884c1.555 1.555 3.206 2.317 4.975 2.317 1.16 0 2.268-.328 3.333-.991l-1.46-1.46a3.333 3.333 0 0 1-4.631-4.63l-1.896-1.9a11.99 11.99 0 0 0-2.16 1.863l-.22.242-.934-.831c.77-.865 1.575-1.59 2.414-2.173L0 .884.884 0zM6.51 7.395a2.083 2.083 0 0 0 2.812 2.811L6.51 7.395zm1.848-2.37a3.333 3.333 0 0 1 3.272 3.972L10.336 7.7a2.089 2.089 0 0 0-1.32-1.32L7.719 5.087c.207-.04.421-.062.64-.062zm0-3.125c2.867 0 5.454 1.246 7.732 3.702l.235.258-.935.83c-2.109-2.372-4.443-3.54-7.032-3.54-.776 0-1.529.105-2.26.316l-.99-.99A9.327 9.327 0 0 1 8.36 1.9z"/>
        </clipPath>
    </defs>
    <g clip-path="url(#xrg58xtwua)" transform="translate(-885 -503)">
        <g clip-path="url(#qgktk2k1ib)" transform="translate(886.641 504.641)">
            <path fill="#8B8EA0" d="M0 0h16.717v16.717H0V0z"/>
        </g>
    </g>
</svg>
