<svg width="20" height="20" viewBox="0 0 20 20" xmlns="http://www.w3.org/2000/svg">
    <defs>
        <clipPath id="n9qx6aynqa">
            <path d="M1440 0v734H0V0h1440z"/>
        </clipPath>
        <clipPath id="qenf2bo5pb">
            <path d="m12.942 9.35.884.884c-1.778 1.778-3.739 2.683-5.859 2.683-2.031 0-3.917-.831-5.635-2.466l-.223-.217.883-.884c1.556 1.555 3.206 2.317 4.975 2.317 1.689 0 3.27-.694 4.762-2.11l.213-.207zM7.967 3.125a3.333 3.333 0 1 1 0 6.667 3.333 3.333 0 0 1 0-6.667zm0 1.25a2.083 2.083 0 1 0 0 4.167 2.083 2.083 0 0 0 0-4.167zm0-4.375c2.868 0 5.454 1.245 7.733 3.701l.234.259-.934.83c-2.11-2.373-4.444-3.54-7.033-3.54-2.5 0-4.762 1.088-6.814 3.3l-.219.24L0 3.96C2.335 1.333 5 0 7.967 0z"/>
        </clipPath>
    </defs>
    <g clip-path="url(#n9qx6aynqa)" transform="translate(-885 -285)">
        <g clip-path="url(#qenf2bo5pb)" transform="translate(887.033 288.542)">
            <path fill="#8B8EA0" d="M0 0h15.934v12.917H0V0z"/>
        </g>
    </g>
</svg>
