<?xml version="1.0" encoding="UTF-8"?><svg version="1.1" width="21px" height="21px" viewBox="0 0 21.0 21.0" xmlns="http://www.w3.org/2000/svg" xmlns:xlink="http://www.w3.org/1999/xlink"><defs><clipPath id="i0"><path d="M1440,0 L1440,720 L0,720 L0,0 L1440,0 Z"></path></clipPath><clipPath id="i1"><path d="M6.75,0 L6.75,5.25 L12,5.25 L12,6.75 L6.75,6.75 L6.75,12 L5.25,12 L5.25,6.75 L0,6.75 L0,5.25 L5.25,5.25 L5.25,0 L6.75,0 Z"></path></clipPath></defs><g transform="translate(-1019.0 -122.0)"><g clip-path="url(#i0)"><g transform="translate(257.0 100.0)"><g transform="translate(468.0 10.0)"><g transform="translate(282.0 0.0)"><g transform="translate(12.5 12.5)"><g transform="translate(4.0 4.0)"><g clip-path="url(#i1)"><polygon points="0,0 12,0 12,12 0,12 0,0" stroke="none" fill="#1F9BA5"></polygon></g></g></g></g></g></g></g></g></svg>