<svg width="16" height="16" viewBox="0 0 16 16" xmlns="http://www.w3.org/2000/svg">
    <defs>
        <clipPath id="71t13jzaua">
            <path d="M1440 0v1054H0V0h1440z"/>
        </clipPath>
        <clipPath id="li9a83em9b">
            <path d="M13.352 1.826a2.75 2.75 0 0 1-4.336 3.049l-.148-.131-.097-.1-3.32 2.075.005.02c.06.278.072.563.036.844l-.036.21-.005.019 3.318 2.074.11-.112a2.75 2.75 0 0 1 1.481-.727l.21-.023.193-.008a2.75 2.75 0 1 1-2.75 2.747l.008-.184.021-.184.033-.175-3.32-2.075-.112.116a2.751 2.751 0 0 1-2.427.703l-.187-.044-.185-.057a2.75 2.75 0 1 1 2.657-4.718l.142.126.113.115 3.319-2.075-.033-.174-.012-.092-.009-.092-.008-.185a2.75 2.75 0 0 1 5.34-.942zm-2.59 8.69a1.25 1.25 0 1 0 0 2.5 1.25 1.25 0 0 0 0-2.5zm-8-4.5a1.25 1.25 0 1 0 0 2.5 1.25 1.25 0 0 0 0-2.5zm8-4.5a1.25 1.25 0 1 0 0 2.5 1.25 1.25 0 0 0 0-2.5z"/>
        </clipPath>
    </defs>
    <g clip-path="url(#71t13jzaua)" transform="translate(-1103 -378)">
        <g clip-path="url(#li9a83em9b)" transform="translate(1103.737 378.734)">
            <path fill="#191B23" d="M0 0h13.513v14.516H0V0z"/>
        </g>
    </g>
</svg>
