<?xml version="1.0" encoding="UTF-8"?><svg version="1.1" width="20px" height="21px" viewBox="0 0 20.0 21.0" xmlns="http://www.w3.org/2000/svg" xmlns:xlink="http://www.w3.org/1999/xlink"><defs><clipPath id="i0"><path d="M1440,0 L1440,720 L0,720 L0,0 L1440,0 Z"></path></clipPath><clipPath id="i1"><path d="M12.4624038,0 C13.3119759,0 14.0000096,0.713870029 14.0000096,1.59534433 L13.9937292,1.74061115 C13.9612643,2.11426133 13.8047769,2.45064509 13.5672733,2.70514139 L13.5668696,12.514743 C13.5668696,13.1350677 13.077884,13.6424151 12.4680666,13.6424151 L9.378,13.642 L10.6440247,16.0078754 C10.8260402,16.3436092 10.7076291,16.7682222 10.3723354,16.9638011 C10.2699522,17.0204559 10.1536169,17.0501676 10.0386163,17.0501676 C9.79024769,17.0501676 9.55953643,16.9128215 9.42886532,16.684193 L7.801,13.642 L7.685,13.642 L7.68520446,16.3451135 C7.68520446,16.6993751 7.42897099,16.9965984 7.08797273,17.0436755 L6.99300043,17.0501676 C6.60854286,17.0501676 6.30079639,16.730865 6.30079639,16.3451135 L6.3,13.642 L6.185,13.642 L4.55798373,16.6853658 C4.45097092,16.8782096 4.26556161,17.0084817 4.05684948,17.0417667 L3.95080657,17.0501676 C3.82929801,17.0501676 3.70760518,17.0171451 3.61012858,16.9562952 C3.2817938,16.7646716 3.1633827,16.3400587 3.34447761,16.0060341 L4.609,13.642 L1.52298761,13.6424151 C0.913170277,13.6424151 0.424185089,13.1350678 0.424185089,12.514743 L0.423420304,2.69631063 C0.159994609,2.41006053 -0.00143489067,2.02236965 9.61362866e-06,1.59534433 L0.00629010544,1.4500775 C0.0769574243,0.63675444 0.73525145,0 1.53762506,0 L12.4624038,0 Z M12.311,3.19 L1.685,3.19 L1.68500961,12.361 L5.59742317,12.3600244 C5.67379647,12.3467661 5.75259305,12.3464722 5.83046199,12.3602607 L6.88207126,12.3612724 C6.91815923,12.3553435 6.95520922,12.3522583 6.99300043,12.3522583 C7.03116034,12.3522583 7.0685645,12.355404 7.104987,12.3614482 L8.18538846,12.3596749 C8.24648712,12.3513597 8.30792232,12.3515999 8.36808573,12.3598588 L12.3110096,12.361 L12.311,3.19 Z"></path></clipPath></defs><g transform="translate(-1098.0 -122.0)"><g clip-path="url(#i0)"><g transform="translate(257.0 100.0)"><g transform="translate(468.0 10.0)"><g transform="translate(282.0 0.0)"><g transform="translate(90.99999999999997 12.499999999999979)"><g transform="translate(2.9999999999997726 2.5)"><g clip-path="url(#i1)"><polygon points="5.44009282e-14,0 14.0000096,0 14.0000096,17.0501676 5.44009282e-14,17.0501676 5.44009282e-14,0" stroke="none" fill="#1F9BA5"></polygon></g></g></g></g></g></g></g></g></svg>