<?xml version="1.0" encoding="UTF-8"?><svg version="1.1" width="20px" height="21px" viewBox="0 0 20.0 21.0" xmlns="http://www.w3.org/2000/svg" xmlns:xlink="http://www.w3.org/1999/xlink"><defs><clipPath id="i0"><path d="M1440,0 L1440,720 L0,720 L0,0 L1440,0 Z"></path></clipPath><clipPath id="i1"><path d="M12.981197,0 C13.599283,0 14.1,0.500717432 14.1,1.11880342 L14.1,14.381197 C14.1,14.999283 13.599283,15.5 12.981197,15.5 L1.11880342,15.5 C0.500717411,15.5 0,14.999283 0,14.381197 L0,1.11880342 C0,0.500717432 0.500717432,0 1.11880342,0 L12.981197,0 Z M4.167,11.858 L1.298,11.858 L1.298,14.201 L4.167,14.201 L4.167,11.858 Z M8.634,11.858 L5.465,11.858 L5.465,14.201 L8.634,14.201 L8.634,11.858 Z M12.8,11.858 L9.932,11.858 L9.932,14.201 L12.801,14.201 L12.8,11.858 Z M4.167,8.07 L1.298,8.07 L1.298,10.559 L4.167,10.559 L4.167,8.07 Z M8.634,8.07 L5.465,8.07 L5.465,10.559 L8.634,10.559 L8.634,8.07 Z M12.8,8.07 L9.932,8.07 L9.932,10.559 L12.8,10.559 L12.8,8.07 Z M4.167,4.044 L1.298,4.044 L1.298,6.772 L4.167,6.772 L4.167,4.044 Z M8.634,4.044 L5.465,4.044 L5.465,6.772 L8.634,6.772 L8.634,4.044 Z M12.8,4.044 L9.932,4.044 L9.932,6.772 L12.8,6.772 L12.8,4.044 Z"></path></clipPath></defs><g transform="translate(-961.0 -122.0)"><g clip-path="url(#i0)"><g transform="translate(257.0 100.0)"><g transform="translate(468.0 10.0)"><g transform="translate(155.0 0.0)"><g transform="translate(80.99999999999997 12.5)"><g transform="translate(2.9499999999995907 2.25)"><g clip-path="url(#i1)"><polygon points="0,0 14.1,0 14.1,15.5 0,15.5 0,0" stroke="none" fill="#2C97DD"></polygon></g></g></g></g></g></g></g></g></svg>