<svg width="522" height="70" viewBox="0 0 522 70" xmlns="http://www.w3.org/2000/svg">
    <defs>
        <clipPath id="1rn5zfd6aa">
            <path d="M1440 0v846H0V0h1440z"/>
        </clipPath>
        <clipPath id="zg5wcn64wb">
            <path d="M522 0v212H0V0h522z"/>
        </clipPath>
        <clipPath id="4ulu6x7xdc">
            <path d="M522 0v70H0V0h522z"/>
        </clipPath>
        <clipPath id="ava79jf4dd">
            <path d="M104.76 32.2c10.202 0 18.629 4.508 24.11 12.377l2.473 3.553.814-13.842c.061-.528.213-.688.603-.688h3.92c.432 0 .6.168.6.6v64.4c0 .432-.168.6-.6.6h-3.92c-.39 0-.542-.16-.61-.766l-.994-13.348-2.401 3.241c-5.59 7.546-13.996 11.853-23.995 11.853-18.313 0-32.1-14.8-32.1-33.64 0-19.53 13.645-34.34 32.1-34.34zm153.3 0c17.818 0 30.56 13.827 30.56 30.98 0 4.055-.38 4.997-2.035 5.075l-.245.005h-55.162l.192 1.67c1.7 14.846 12.973 25.27 28.65 25.27 8.803 0 15.36-2.552 20.868-7.371.576-.572.59-.625.75-.486l1.865 1.72c.49.49.552.575.249.9l-.153.156c-6.104 6.51-14.701 10.061-24.559 10.061-18.924 0-32.8-14.718-32.8-34.06 0-19.38 13.344-33.92 31.82-33.92zm151.06 0c17.818 0 30.56 13.827 30.56 30.98 0 4.055-.38 4.997-2.035 5.075l-.245.005h-55.162l.192 1.67c1.7 14.846 12.973 25.27 28.65 25.27 8.803 0 15.36-2.552 20.868-7.371.576-.572.59-.625.75-.486l1.865 1.72c.49.49.552.575.249.9l-.153.156c-6.104 6.51-14.701 10.061-24.559 10.061-18.924 0-32.8-14.718-32.8-34.06 0-19.38 13.344-33.92 31.82-33.92zm-382.9-28c19.012 0 30.42 11.334 30.42 28.46 0 17.039-11.459 28.46-30.42 28.46H5.68V98.6c0 .432-.168.6-.6.6H.6c-.432 0-.6-.168-.6-.6V4.8c0-.432.168-.6.6-.6zM163 0c.432 0 .6.168.6.6v74.021l38.565-40.365.067-.076c.328-.392.815-.58 1.508-.58h4.779l-26.657 27.527L212.37 99.12l.057.075-.085.006h-4.822c-.708 0-.92-.102-1.3-.632l-27.143-34.443L163.6 80.072V98.6c0 .432-.168.6-.6.6h-4.2c-.432 0-.6-.168-.6-.6V.6c0-.432.168-.6.6-.6h4.2zm195.02 0c.432 0 .6.168.6.6v98c0 .432-.168.6-.6.6h-4.2c-.432 0-.6-.168-.6-.6V.6c0-.432.168-.6.6-.6h4.2zm-35.98 12.6c.432 0 .6.168.6.6v20.4h12.7c.432 0 .6.168.6.6v3.08c0 .432-.168.6-.6.6h-12.7V98.6c0 .432-.168.6-.6.6h-4.2c-.432 0-.6-.168-.6-.6V37.88h-12.7c-.432 0-.6-.168-.6-.6V34.2c0-.432.168-.6.6-.6h12.7V13.2c0-.432.168-.6.6-.6h4.2zm160.02 19.46.416.004c2.618.054 4.888.612 6.503 1.564l.136.083-.067.114-.08.146-1.63 3.405-.082.152c-.074.136-.1.101-.54-.002l-1.086-.255c-1.501-.348-2.783-.511-4.69-.511-9.535 0-17.04 7.272-17.04 16.9V98.6c0 .432-.168.6-.6.6h-4.2c-.432 0-.6-.168-.6-.6V34.2c0-.432.168-.6.6-.6h3.5c.39 0 .542.16.61.766l.96 9.607 2.319-3.313c3.897-5.568 9.17-8.6 15.571-8.6zm-376.74 4.7c-15.833 0-27.68 12.734-27.68 29.64 0 16.368 11.998 29.22 27.68 29.22 15.633 0 27.4-12.796 27.4-29.22 0-16.412-11.874-29.64-27.4-29.64zm152.74.14c-14.477 0-25.164 10.73-26.692 25.708l-.169 1.652h53.033l-.032-1.532c-.308-14.46-11.363-25.828-26.14-25.828zm151.06 0c-14.477 0-25.164 10.73-26.692 25.708l-.169 1.652h53.033l-.032-1.532c-.308-14.46-11.363-25.828-26.14-25.828zM25.52 9.46H5.68v46.4h19.84c15.773 0 25.58-7.901 25.58-23.2s-9.807-23.2-25.58-23.2z"/>
        </clipPath>
    </defs>
    <g clip-path="url(#1rn5zfd6aa)" transform="translate(-868 -204)">
        <g clip-path="url(#zg5wcn64wb)" transform="translate(868 204)">
            <g clip-path="url(#4ulu6x7xdc)">
                <g clip-path="url(#ava79jf4dd)" transform="rotate(-5 -405.786 -217.646)">
                    <path fill="#F5F5F7" d="M0 34.538h489.115v65.642H0V34.538z"/>
                </g>
            </g>
        </g>
    </g>
</svg>
