<svg width="522" height="70" viewBox="0 0 522 70" xmlns="http://www.w3.org/2000/svg">
    <defs>
        <clipPath id="bj7rr96vra">
            <path d="M1440 0v846H0V0h1440z"/>
        </clipPath>
        <clipPath id="quvypymnob">
            <path d="M522 0v212H0V0h522z"/>
        </clipPath>
        <clipPath id="fnov2ctfoc">
            <path d="M522 0v70H0V0h522z"/>
        </clipPath>
        <clipPath id="cgu5saoucd">
            <path d="M1013.718 34.44h4.34c.568 0 .94.238 1.116.707l23.524 61.193 23.52-61.182c.18-.48.552-.718 1.12-.718h4.48l.248-.01c.248-.018.185-.032.056.29l-36.138 91.187c-.186.495-.558.733-1.126.733h-4.48c-.488 0-.47.107-.334-.206l9.93-24.609-26.6-67.205c-.126-.287-.144-.18.344-.18zm-600.04 0c.432 0 .6.168.6.6V76.2c0 13.445 6.805 21.52 18.72 21.52 6.748 0 12.67-2.96 17.264-7.859 3.602-3.84 6.076-8.708 6.076-11.561V35.04c0-.432.169-.6.6-.6h4.2c.432 0 .6.168.6.6v64.4c0 .432-.168.6-.6.6h-3.64c-.39 0-.542-.16-.61-.766l-.838-12.823-2.452 3.606c-5.11 7.515-12.213 11.803-21.16 11.803-15.305 0-23.56-8.624-23.56-25.66V35.04c0-.432.169-.6.6-.6h4.2zm470.4-30.52c9.5 0 19.385 4.701 25.678 12.22l.388.468c.263.312.28.387 0 .722l-.113.131-2.513 2.214c-.392.333-.43.308-.601.109-6.937-7.412-14.09-11.024-22.979-11.024-12.132 0-20.82 6.907-20.82 18.02 0 5.591 2.405 9.963 7.007 13.577 3.167 2.488 6.76 4.344 13.15 7.01l6.462 2.64 1.174.487c7.667 3.209 12.277 5.717 16.059 9.1 4.966 4.444 7.528 9.914 7.528 17.166 0 13.56-13.212 24.96-29.86 24.96-12.744 0-23.562-5.354-28.819-13.98l-.127-.233c-.102-.204-.066-.264.197-.49l3.125-2.678c.33-.283.43-.273.903.202 7.688 8.072 14.828 12.199 24.441 12.199 14.334 0 24.46-8.922 24.46-20.68 0-5.897-2.521-10.49-7.34-14.275-3.47-2.725-7.321-4.666-14.736-7.735l-4.332-1.777-1.688-.703c-7.456-3.139-11.772-5.464-15.42-8.617-4.92-4.253-7.444-9.436-7.444-16.313 0-12.97 11.048-22.72 26.22-22.72zm250.74 28.98c6.935 0 15.295 3.835 20.42 9.834l.048.06c.16.213.152.391-.098.783l-.135.2-1.634 1.907-.09.113c-.194.224-.293.16-.79-.338-6.268-5.787-11.194-8.139-18.14-8.139-8.026 0-14.8 4.162-14.8 12.28 0 3.886 1.829 6.904 5.276 9.335 2.501 1.764 5.389 3.046 10.675 4.95l4.34 1.55.225.082c13.134 4.778 18.543 9.311 18.543 18.663 0 9.701-9.85 17.26-21.46 17.26-9.613 0-18.334-4.294-23.904-10.613l-.506-.586c-.193-.229-.159-.23-.01-.38l.083-.09 2.38-2.8.072-.09.069-.082.114.092c.134.113.292.26.481.45 5.107 5.35 12.67 9.539 20.941 9.539 9.876 0 16.48-4.92 16.48-12.7 0-4.312-1.971-7.634-5.693-10.29-2.687-1.916-5.659-3.242-11.45-5.35l-3.233-1.17-1.096-.403c-5.698-2.12-9.04-3.745-11.81-5.967-3.642-2.924-5.498-6.53-5.498-11.4 0-9.547 8.584-16.7 20.2-16.7zm-171.5.14c10.202 0 18.629 4.508 24.11 12.377l2.473 3.553.815-13.842c.06-.528.213-.688.602-.688h3.92c.432 0 .6.168.6.6v64.4c0 .432-.168.6-.6.6h-3.92c-.39 0-.542-.16-.61-.766l-.994-13.348-2.401 3.241c-5.59 7.546-13.996 11.853-23.995 11.853-18.313 0-32.1-14.8-32.1-33.64 0-19.53 13.646-34.34 32.1-34.34zm-214.48 0c9.844 0 18.388 4.152 24.907 11.663l.07.088c.185.256.17.46-.055.72l-.061.064-2.043 1.771-.079.073c-.476.477-.562.483-1.031.072l-2.298-2.123-1.13-1.02c-5.148-4.485-10.43-6.748-18.42-6.748-16.107 0-27.68 12.712-27.68 29.92 0 16.378 11.719 28.94 27.68 28.94 8.552 0 14.28-2.406 19.371-7.022l.6-.556c.671-.633 1.225-1.195 2.388-2.4l.159-.155c.304-.284.378-.23.781.174l2.138 1.996c.295.297.312.531.024.867-6.507 7.498-15.202 11.656-25.32 11.656-18.574 0-32.8-14.798-32.8-33.5 0-19.542 14.089-34.48 32.8-34.48zm-183.82 0c10.202 0 18.629 4.508 24.11 12.377l2.473 3.553.815-13.842c.06-.528.213-.688.602-.688h3.92c.432 0 .6.168.6.6v64.4c0 .432-.168.6-.6.6h-3.92c-.39 0-.542-.16-.61-.766l-.994-13.348-2.401 3.241c-5.59 7.546-13.996 11.853-23.995 11.853-18.313 0-32.1-14.8-32.1-33.64 0-19.53 13.646-34.34 32.1-34.34zm-524.02-28c.568 0 .94.238 1.116.707l34.436 93.93c.174.437.226.363-.272.363h-4.34c-.598 0-.778-.117-.957-.654L62.21 75.26H14.467l-8.8 24.204c-.179.475-.373.576-.929.576H.398c-.365 0-.434.04-.383-.096l.096-.227L34.706 5.738c.172-.46.544-.698 1.112-.698zm1140.16 29.4c.432 0 .6.168.6.6v64.4c0 .432-.168.6-.6.6h-4.2c-.431 0-.6-.168-.6-.6v-64.4c0-.432.169-.6.6-.6h4.2zM263.738 0l.418.004c5.138.107 9.755 2.172 12.88 5.743l.07.083-2.558 2.557-2.223-1.358a52.692 52.692 0 0 0-1.364-.805c-2.4-1.326-4.5-1.944-7.223-1.944-8.115 0-11.44 3.822-11.44 11.86v18.3h15.08c.432 0 .6.168.6.6v3.08c0 .432-.168.6-.6.6h-15.08v60.72c0 .432-.168.6-.6.6h-4.2c-.431 0-.6-.168-.6-.6V38.72h-9.62c-.431 0-.6-.168-.6-.6v-3.08c0-.432.169-.6.6-.6h9.62V16c0-10.905 5.035-16 16.84-16zm830.34 34.44c.432 0 .6.168.6.6v64.4c0 .432-.168.6-.6.6h-4.2c-.431 0-.6-.168-.6-.6v-64.4c0-.432.169-.6.6-.6h4.2zm-445.06-1.54c14.259 0 22.3 8.584 22.3 25.38v41.16c0 .432-.168.6-.6.6h-4.2c-.431 0-.6-.168-.6-.6V58.28c0-13.296-6.537-21.1-18.02-21.1-6.868 0-12.918 2.999-17.75 7.941-3.6 3.682-6.29 8.407-6.29 10.639v43.68c0 .432-.168.6-.6.6h-4.2c-.431 0-.6-.168-.6-.6v-64.4c0-.432.169-.6.6-.6h3.64c.39 0 .542.16.61.766l.8 14.045 2.48-3.552c5.599-8.02 13.369-12.799 22.43-12.799zm47.74 1.54c.432 0 .6.168.6.6v64.4c0 .432-.168.6-.6.6h-4.2c-.431 0-.6-.168-.6-.6v-64.4c0-.432.169-.6.6-.6h4.2zm100.24 0c.432 0 .6.168.6.6v64.4c0 .432-.168.6-.6.6h-4.2c-.431 0-.6-.168-.6-.6v-64.4c0-.432.169-.6.6-.6h4.2zm-617.26-21c.432 0 .6.168.6.6v20.4h12.7c.432 0 .6.168.6.6v3.08c0 .432-.168.6-.6.6h-12.7v60.72c0 .432-.168.6-.6.6h-4.2c-.431 0-.6-.168-.6-.6V38.72h-12.7c-.431 0-.6-.168-.6-.6v-3.08c0-.432.169-.6.6-.6h12.7v-20.4c0-.432.169-.6.6-.6h4.2zm154.56-8.4c.432 0 .6.168.6.6v47.987l43.491-47.96c.395-.471.769-.627 1.41-.627h6.32l-36.134 39.43 42.2 55.458.066.107-.073.005h-5.94c-.708 0-.92-.102-1.3-.632l-38.49-51.177-11.55 12.689v38.52c0 .432-.168.6-.6.6h-4.48c-.431 0-.6-.168-.6-.6V5.64c0-.432.169-.6.6-.6h4.48zm153.16-4.2c.432 0 .6.168.6.6v98c0 .432-.168.6-.6.6h-4.2c-.431 0-.6-.168-.6-.6v-98c0-.432.169-.6.6-.6h4.2zm26.18 0c.432 0 .6.168.6.6v98c0 .432-.168.6-.6.6h-4.2c-.431 0-.6-.168-.6-.6v-98c0-.432.169-.6.6-.6h4.2zm-296.38 33.6c.432 0 .6.168.6.6v64.4c0 .432-.168.6-.6.6h-4.2c-.431 0-.6-.168-.6-.6v-64.4c0-.432.169-.6.6-.6h4.2zM99.798.84c.432 0 .6.168.6.6v74.021l38.565-40.365.067-.076c.328-.392.815-.58 1.508-.58h4.779L118.66 61.967l30.509 37.992.056.075-.085.006h-4.822c-.708 0-.92-.102-1.3-.632l-27.143-34.443-15.477 15.947V99.44c0 .432-.168.6-.6.6h-4.2c-.431 0-.6-.168-.6-.6v-98c0-.432.169-.6.6-.6h4.2zm465.78 36.76c-15.833 0-27.68 12.734-27.68 29.64 0 16.368 11.999 29.22 27.68 29.22 15.633 0 27.4-12.796 27.4-29.22 0-16.412-11.874-29.64-27.4-29.64zm398.3 0c-15.833 0-27.68 12.734-27.68 29.64 0 16.368 11.999 29.22 27.68 29.22 15.633 0 27.4-12.796 27.4-29.22 0-16.412-11.874-29.64-27.4-29.64zM38.338 9.368 15.897 71.12h44.882L38.34 9.368zM215.158 5.6c2.477 0 4.24 1.793 4.24 4.24 0 2.572-1.748 4.38-4.24 4.38s-4.24-1.808-4.24-4.38c0-2.447 1.763-4.24 4.24-4.24z"/>
        </clipPath>
    </defs>
    <g clip-path="url(#bj7rr96vra)" transform="translate(-306 -204)">
        <g clip-path="url(#quvypymnob)" transform="translate(306 204)">
            <g clip-path="url(#fnov2ctfoc)">
                <g clip-path="url(#cgu5saoucd)" transform="rotate(-5 -328.39 2055.165)">
                    <path fill="#F5F5F7" d="M171.769 36.442h526.114v90.216H171.77V36.442z"/>
                </g>
            </g>
        </g>
    </g>
</svg>
