<?xml version="1.0" encoding="UTF-8"?><svg version="1.1" width="20px" height="20px" viewBox="0 0 20.0 20.0" xmlns="http://www.w3.org/2000/svg" xmlns:xlink="http://www.w3.org/1999/xlink"><defs><clipPath id="i0"><path d="M1440,0 L1440,750 L0,750 L0,0 L1440,0 Z"></path></clipPath><clipPath id="i1"><path d="M8.80618439,-2.48689958e-14 L8.80618439,1.8008027 L3.06477569,1.8008027 L12.7662267,11.4980591 L12.674,17.798 L10.828,17.74 L10.8467432,12.3057053 L1.8459175,3.09345227 L1.8459175,8.782 L0,8.782 L0,-2.48689958e-14 L8.80618439,-2.48689958e-14 Z"></path></clipPath></defs><g transform="translate(-874.0 -717.0)"><g clip-path="url(#i0)"><g transform="translate(306.0 189.0)"><g transform="translate(511.0 515.0)"><g transform="translate(57.0 12.99999999999806)"><g transform="translate(18.9509744654548 3.1129768375570874) rotate(90.0)"><g clip-path="url(#i1)"><polygon points="0,-2.48689958e-14 12.7662267,-2.48689958e-14 12.7662267,17.798 0,17.798 0,-2.48689958e-14" stroke="none" fill="#191B23"></polygon></g></g></g></g></g></g></g></svg>