<svg
  width="24"
  height="24"
  viewBox="0 0 24 24"
  xmlns="http://www.w3.org/2000/svg"
>
  <defs>
    <clipPath id="588u8fq7ya">
      <path d="M1440 0v846H0V0h1440z" />
    </clipPath>
    <clipPath id="l44ydv3ufb">
      <path
        d="M16.5 13.5v3h-3v-3h3zm-7.5 0v3H6v-3h3zM9 0a1.5 1.5 0 0 1 1.5 1.5V9A1.5 1.5 0 0 1 9 10.5H1.5A1.5 1.5 0 0 1 0 9V1.5A1.5 1.5 0 0 1 1.5 0H9zm7.5 6v3h-3V6h3z"
      />
    </clipPath>
    <clipPath id="3vfwyhq4vc">
      <path
        d="M16.5 12a1.5 1.5 0 0 1 1.5 1.5v3a1.5 1.5 0 0 1-1.5 1.5h-3a1.5 1.5 0 0 1-1.5-1.5v-3a1.5 1.5 0 0 1 1.5-1.5zM9 12a1.5 1.5 0 0 1 1.5 1.5v3A1.5 1.5 0 0 1 9 18H6a1.5 1.5 0 0 1-1.5-1.5v-3A1.5 1.5 0 0 1 6 12zm7.5 1.5h-3v3h3v-3zm-7.5 0H6v3h3v-3zM9 0a1.5 1.5 0 0 1 1.5 1.5V9A1.5 1.5 0 0 1 9 10.5H1.5A1.5 1.5 0 0 1 0 9V1.5A1.5 1.5 0 0 1 1.5 0H9zm7.5 4.5A1.5 1.5 0 0 1 18 6v3a1.5 1.5 0 0 1-1.5 1.5h-3A1.5 1.5 0 0 1 12 9V6a1.5 1.5 0 0 1 1.5-1.5zM9 1.5H1.5V9H9V1.5zM16.5 6h-3v3h3V6z"
      />
    </clipPath>
  </defs>
  <g clip-path="url(#588u8fq7ya)" transform="translate(-22 -629)">
    <g clip-path="url(#l44ydv3ufb)" transform="translate(25 632)">
      <path fill="#1f9ba5" opacity="5%" d="M0 0h16.5v16.5H0V0z" />
    </g>
    <path
      d="M34 642h-7.5a1.5 1.5 0 0 1-1.5-1.5V633a1.5 1.5 0 0 1 1.5-1.5H34a1.5 1.5 0 0 1 1.5 1.5v7.5A1.5 1.5 0 0 1 34 642zm-7.5-9v7.5H34V633h-7.5zm15 4.5v3h-3v-3h3m0-1.5h-3a1.5 1.5 0 0 0-1.5 1.5v3a1.5 1.5 0 0 0 1.5 1.5h3a1.5 1.5 0 0 0 1.5-1.5v-3a1.5 1.5 0 0 0-1.5-1.5zm0 9v3h-3v-3h3m0-1.5h-3A1.5 1.5 0 0 0 37 645v3a1.5 1.5 0 0 0 1.5 1.5h3A1.5 1.5 0 0 0 43 648v-3a1.5 1.5 0 0 0-1.5-1.5zM34 645v3h-3v-3h3m0-1.5h-3a1.5 1.5 0 0 0-1.5 1.5v3a1.5 1.5 0 0 0 1.5 1.5h3a1.5 1.5 0 0 0 1.5-1.5v-3a1.5 1.5 0 0 0-1.5-1.5z"
      fill="#1f9ba5"
    />
    <g clip-path="url(#3vfwyhq4vc)" transform="translate(25 632)">
      <path fill="#1f9ba5" d="M0 0h18v18H0V0z" />
    </g>
  </g>
</svg>
