<svg width="20" height="20" viewBox="0 0 20 20" xmlns="http://www.w3.org/2000/svg">
    <path d="m12.733 1.137 1.082.625.048.178-4.565 7.909.068.043a3.19 3.19 0 0 1 1.382 2.4l.013.338a8.998 8.998 0 0 0 .286 1.789c.35 1.309.965 2.395 1.907 3.102a.755.755 0 0 1-.453 1.359H3.13a.755.755 0 0 1-.755-.725c-.03-.77.008-1.893.196-3.14.309-2.046.942-3.7 1.993-4.715a3.692 3.692 0 0 1 3.18-1.015l.121.023 4.69-8.123.177-.048zM18.75 16.12l.13.13v1.25l-.13.13H15l-.13-.13v-1.25l.13-.13h3.75zM4.934 12.322l-.08.153c-.614 1.229-.903 2.919-.964 4.655l-.007.24h1.362l-.065-.248a10.969 10.969 0 0 1-.281-1.688l-.029-.428.13-.136h1.25l.13.122c.043.699.157 1.391.341 2.066l.091.312h1.067l-.013-.024a4.192 4.192 0 0 1-.47-1.456l-.026-.256.13-.139h1.25l.129.114a3.12 3.12 0 0 0 .716 1.632l.118.129h1.036l-.064-.092a8.27 8.27 0 0 1-1.151-2.65l-.062-.287-4.538-2.019zM17.5 13.62l.13.13V15l-.13.13h-3.75l-.13-.13v-1.25l.13-.13h3.75zm-1.25-2.5.13.13v1.25l-.13.13H12.5l-.13-.13v-1.25l.13-.13h3.75zm-10.139-.091-.155.095 3.293 1.465-.001-.085a1.814 1.814 0 0 0-1.642-1.743l-.163-.009c-.465-.048-.93.05-1.332.277z" fill="#2D97DE" fill-rule="nonzero"/>
</svg>
