<svg
  width="24"
  height="24"
  viewBox="0 0 24 24"
  xmlns="http://www.w3.org/2000/svg"
>
  <defs>
    <clipPath id="lnzy55ho6a">
      <path d="M1440 0v846H0V0h1440z" />
    </clipPath>
    <clipPath id="boanyn4yab">
      <path
        d="M6.75 0a1.502 1.502 0 0 1 1.5 1.5V6a1.502 1.502 0 0 1-1.5 1.5h-1.5v3.69l3.31 3.31h2.19V13a1.502 1.502 0 0 1 1.5-1.5h4.5a1.502 1.502 0 0 1 1.5 1.5v4.5a1.502 1.502 0 0 1-1.5 1.5h-4.5a1.502 1.502 0 0 1-1.5-1.5V16H8.56l-3.53 3.53a.75.75 0 0 1-1.06 0L.22 15.78a.75.75 0 0 1 0-1.06l3.53-3.53V7.5h-1.5A1.502 1.502 0 0 1 .75 6V1.5A1.502 1.502 0 0 1 2.25 0z"
      />
    </clipPath>
    <clipPath id="adamk1h1hc">
      <path
        d="M6.75 0a1.502 1.502 0 0 1 1.5 1.5V6a1.502 1.502 0 0 1-1.5 1.5h-1.5v3.69l3.31 3.31h2.19V13a1.502 1.502 0 0 1 1.5-1.5h4.5a1.502 1.502 0 0 1 1.5 1.5v4.5a1.502 1.502 0 0 1-1.5 1.5h-4.5a1.502 1.502 0 0 1-1.5-1.5V16H8.56l-3.53 3.53a.75.75 0 0 1-1.06 0L.22 15.78a.75.75 0 0 1 0-1.06l3.53-3.53V7.5h-1.5A1.502 1.502 0 0 1 .75 6V1.5A1.502 1.502 0 0 1 2.25 0zM4.5 12.56l-2.69 2.69 2.69 2.69 2.69-2.69-2.69-2.69zm12.25.44h-4.5v4.5h4.5V13zm-10-11.5h-4.5V6h4.5V1.5z"
      />
    </clipPath>
  </defs>
  <g clip-path="url(#lnzy55ho6a)" transform="translate(-22 -301)">
    <g clip-path="url(#boanyn4yab)" transform="translate(25 303.12)">
      <path fill="#1f9ba5" opacity="5%" d="M0 0h18.25v19.75H0V0z" />
    </g>
    <path
      d="M41.75 314.12h-4.5a1.502 1.502 0 0 0-1.5 1.5v1.5h-2.19l-3.31-3.31v-3.69h1.5a1.502 1.502 0 0 0 1.5-1.5v-4.5a1.502 1.502 0 0 0-1.5-1.5h-4.5a1.502 1.502 0 0 0-1.5 1.5v4.5a1.502 1.502 0 0 0 1.5 1.5h1.5v3.69l-3.53 3.53a.75.75 0 0 0 0 1.06l3.75 3.75a.75.75 0 0 0 1.06 0l3.53-3.53h2.19v1.5a1.502 1.502 0 0 0 1.5 1.5h4.5a1.502 1.502 0 0 0 1.5-1.5v-4.5a1.502 1.502 0 0 0-1.5-1.5zm-14.5-10h4.5v4.5h-4.5v-4.5zm2.25 16.44-2.69-2.69 2.69-2.69 2.69 2.69-2.69 2.69zm7.75-.44v-4.5h4.5v4.5h-4.5z"
      fill="#1f9ba5"
    />
    <g clip-path="url(#adamk1h1hc)" transform="translate(25 303.12)">
      <path fill="#1f9ba5" d="M0 0h18.25v19.75H0V0z" />
    </g>
  </g>
</svg>
