<svg
  width="20"
  height="20"
  viewBox="0 0 20 20"
  xmlns="http://www.w3.org/2000/svg"
>
  <path
    d="m13.721 18.13 1.691 1.74H11.13v-1.74h2.591zm6.139 0v1.74h-4.414l1.791-1.74h2.623zm-3.491-2.936.974-.873 1.13 1.228-3.024 2.925-2.924-3.023 1.228-1.13.877.873.067-6.445-.001-1.514H13V11.5a1.5 1.5 0 0 1-1.5 1.5h-.165v.75c0 .827-.633 1.506-1.44 1.579l-.145.006h-6.5a1.585 1.585 0 0 1-1.579-1.44l-.006-.145V13H1.5A1.5 1.5 0 0 1 0 11.5v-10A1.5 1.5 0 0 1 1.5 0h10A1.5 1.5 0 0 1 13 1.5v4.063l1.783.001c.827 0 1.507.633 1.58 1.442l.006.144v8.044zM9.665 13h-6.33v.665h6.33V13zM11.4 1.6H1.6v9.8h9.8V1.6zM5.882 4.03l.72 1.197.72-1.197h1.809L7.529 6.433l1.638 2.466H7.331l-.756-1.251-.765 1.251h-1.8l1.638-2.457L4.037 4.03h1.845z"
    fill="#191B24"
    fill-rule="nonzero"
  />
</svg>
