<svg
  width="24"
  height="24"
  viewBox="0 0 24 24"
  xmlns="http://www.w3.org/2000/svg"
>
  <defs>
    <clipPath id="jzn2iwo92a">
      <path d="M1440 0v1308H0V0h1440z" />
    </clipPath>
    <clipPath id="sjo0obfxab">
      <path
        d="M10.5 0C16.35 0 21 4.65 21 10.5S16.35 21 10.5 21 0 16.35 0 10.5 4.65 0 10.5 0zm0 1.5c-4.95 0-9 4.05-9 9s4.05 9 9 9 9-4.05 9-9-4.05-9-9-9zm.95 6.75-.001 6.5H13v1.5H8.1v-1.5h1.849v-5H8.8v-1.5h2.65zM10.5 4.8a1.2 1.2 0 1 1 0 2.4 1.2 1.2 0 0 1 0-2.4z"
      />
    </clipPath>
  </defs>
  <g clip-path="url(#jzn2iwo92a)" transform="translate(-435 -1105)">
    <g clip-path="url(#sjo0obfxab)" transform="translate(436.5 1106.5)">
      <path fill="#0B7179" d="M0 0h21v21H0V0z" />
    </g>
  </g>
</svg>
