<svg
  width="12"
  height="12"
  viewBox="0 0 12 12"
  xmlns="http://www.w3.org/2000/svg"
>
  <defs>
    <clipPath id="jbg1jlhpga">
      <path d="M1440 0v953H0V0h1440z" />
    </clipPath>
    <clipPath id="rgga5jad9b">
      <path
        d="M5.85 0a5.816 5.816 0 0 1 5.85 5.85 5.816 5.816 0 0 1-5.85 5.85A5.816 5.816 0 0 1 0 5.85 5.816 5.816 0 0 1 5.85 0zm0 1.486A4.378 4.378 0 0 0 1.486 5.85c0 2.4 1.964 4.364 4.364 4.364s4.364-1.964 4.364-4.364S8.25 1.486 5.85 1.486zm.725 2.889V7.75h.875V9.2h-3.2V7.75h.875V5.824l-.625.001v-1.45h2.075zm-.725-2.25c.525 0 .95.319.95.875a.94.94 0 0 1-.95.95c-.525 0-.95-.319-.95-.875 0-.55.436-.95.95-.95z"
      />
    </clipPath>
  </defs>
  <g clip-path="url(#jbg1jlhpga)" transform="translate(-773 -652)">
    <g clip-path="url(#rgga5jad9b)" transform="translate(773.15 652.15)">
      <path d="M0 0h11.7v11.7H0V0z" />
    </g>
  </g>
</svg>
