<svg
  width="24"
  height="24"
  viewBox="0 0 24 24"
  xmlns="http://www.w3.org/2000/svg"
>
  <defs>
    <clipPath id="1ld44kx9da">
      <path d="M1440 0v846H0V0h1440z" />
    </clipPath>
    <clipPath id="avf3xfgzpb">
      <path
        d="m13.5 0 .05.05v17.53l-1.739-2.198a.726.726 0 0 0-1.121-.002l-1.73 2.2-1.649-2.198a.726.726 0 0 0-1.121-.002l-1.73 2.2-1.649-2.198a.726.726 0 0 0-1.121-.002L0 17.58V0h13.5z"
      />
    </clipPath>
    <clipPath id="rywc41pfjc">
      <path
        d="M14.95 0c.8 0 1.45.65 1.45 1.45V20.2a.7.7 0 0 1-.7.7h-.75a.7.7 0 0 1-.56-.28l-1.65-2.2-1.73 2.2a.726.726 0 0 1-1.121-.002L8.24 18.42l-1.73 2.2a.726.726 0 0 1-1.121-.002L3.74 18.42l-1.73 2.2a.7.7 0 0 1-.56.28H.7a.7.7 0 0 1-.7-.7V1.45C0 .65.65 0 1.45 0h13.5zm0 1.4H1.45v17.58l1.69-2.2a.726.726 0 0 1 1.121.002L5.91 18.98l1.73-2.2a.726.726 0 0 1 1.121.002l1.649 2.198 1.73-2.2a.726.726 0 0 1 1.121.002L15 18.98V1.45l-.05-.05zm-1.5 9.05v1.5h-1.5v-1.5h1.5zm-4.5 0v1.5h-6v-1.5h6zm4.5-3v1.5h-1.5v-1.5h1.5zm-4.5 0v1.5h-6v-1.5h6zm4.5-3v1.5H2.95v-1.5h10.5z"
      />
    </clipPath>
  </defs>
  <g clip-path="url(#1ld44kx9da)" transform="translate(-22 -241)">
    <g clip-path="url(#avf3xfgzpb)" transform="translate(27.25 243.95)">
      <path fill="#1f9ba5" opacity="5%" d="M0 0h13.55v17.58H0V0z" />
    </g>
    <path
      d="M40.75 242.05c.8 0 1.45.65 1.45 1.45v18.75a.7.7 0 0 1-.7.7h-.75a.7.7 0 0 1-.56-.28l-1.65-2.2-1.73 2.2a.726.726 0 0 1-1.121-.002l-1.649-2.198-1.73 2.2a.726.726 0 0 1-1.121-.002l-1.649-2.198-1.73 2.2a.7.7 0 0 1-.56.28h-.75a.7.7 0 0 1-.7-.7V243.5c0-.8.65-1.45 1.45-1.45h13.5zm0 1.4h-13.5v17.58l1.69-2.2a.726.726 0 0 1 1.121.002l1.649 2.198 1.73-2.2a.726.726 0 0 1 1.121.002l1.649 2.198 1.73-2.2a.726.726 0 0 1 1.121.002l1.739 2.198V243.5l-.05-.05zm-1.5 9.05v1.5h-1.5v-1.5h1.5zm-4.5 0v1.5h-6v-1.5h6zm4.5-3v1.5h-1.5v-1.5h1.5zm-4.5 0v1.5h-6v-1.5h6zm4.5-3v1.5h-10.5v-1.5h10.5z"
      fill="#1f9ba5"
    />
    <g clip-path="url(#rywc41pfjc)" transform="translate(25.8 242.55)">
      <path fill="#1f9ba5" d="M0 0h16.4v20.9H0V0z" />
    </g>
  </g>
</svg>
