<svg
  width="24"
  height="24"
  viewBox="0 0 24 24"
  xmlns="http://www.w3.org/2000/svg"
>
  <defs>
    <clipPath id="xwp0ej8laa">
      <path d="M1440 0v846H0V0h1440z" />
    </clipPath>
    <clipPath id="qcgz2nq8xb">
      <path
        d="M14 0c.828 0 1.5.672 1.5 1.5v11.55a2.276 2.276 0 1 1 1.248 3.639l-.404-.094-.844.843V19h-1.561l-1.5 1.5H11.25v-1.19l.31-.31H1.5C.672 19 0 18.328 0 17.5v-16C0 .672.672 0 1.5 0H14z"
      />
    </clipPath>
    <clipPath id="tohpd4glnc">
      <path
        d="M20.043 11.996a3.75 3.75 0 0 1-3.207 6.229L13.06 22H9.75v-3.31l3.775-3.776a3.75 3.75 0 0 1 6.518-2.918zm-3.877.49a2.276 2.276 0 0 0-1.104 2.516l.093.404-3.905 3.905V20.5h1.19l3.904-3.905.405.093a2.276 2.276 0 1 0-.583-4.201zM14 0c.828 0 1.5.672 1.5 1.5v7.75H14V1.5H1.5v16h6V19h-6C.672 19 0 18.328 0 17.5v-16C0 .672.672 0 1.5 0H14zm3.25 13.75a.75.75 0 1 1 0 1.5.75.75 0 0 1 0-1.5zM8 10v1.5H3V10h5zm4.5-3v1.5H3V7h9.5zM7.75 3a1.3 1.3 0 1 1 0 2.6 1.3 1.3 0 0 1 0-2.6z"
      />
    </clipPath>
  </defs>
  <g clip-path="url(#xwp0ej8laa)" transform="translate(-22 -361)">
    <g clip-path="url(#qcgz2nq8xb)" transform="translate(25 363)">
      <path fill="#1f9ba5" opacity="5%" d="M0 0h19.553v20.5H0V0z" />
    </g>
    <path
      d="M45.043 374.496a3.75 3.75 0 0 1-3.207 6.229L38.06 384.5H34.75v-3.31l3.775-3.776a3.75 3.75 0 0 1 6.518-2.918zm-3.877.49a2.276 2.276 0 0 0-1.104 2.516l.093.404-3.905 3.905V383h1.19l3.904-3.905.405.093a2.276 2.276 0 1 0-.583-4.201zM39 362.5c.828 0 1.5.672 1.5 1.5v7.75H39V364H26.5v16h6v1.5h-6c-.828 0-1.5-.672-1.5-1.5v-16c0-.828.672-1.5 1.5-1.5H39zm3.25 13.75a.75.75 0 1 1 0 1.5.75.75 0 0 1 0-1.5zM33 372.5v1.5h-5v-1.5h5zm4.5-3v1.5H28v-1.5h9.5zm-4.75-4a1.3 1.3 0 1 1 0 2.6 1.3 1.3 0 0 1 0-2.6z"
      fill="#1f9ba5"
    />
    <g clip-path="url(#tohpd4glnc)" transform="translate(25 363)">
      <path fill="#1f9ba5" d="M0 0h21v22H0V0z" />
    </g>
  </g>
</svg>
