<svg
  width="16"
  height="16"
  viewBox="0 0 16 16"
  xmlns="http://www.w3.org/2000/svg"
>
  <defs>
    <clipPath id="w8phu8dtva">
      <path d="M1440 0v1308H0V0h1440z" />
    </clipPath>
    <clipPath id="h9igiqyppb">
      <path
        d="M2.75 0a2.75 2.75 0 1 1 0 5.5 2.75 2.75 0 0 1 0-5.5zm0 1.5a1.25 1.25 0 1 0 0 2.5 1.25 1.25 0 0 0 0-2.5z"
      />
    </clipPath>
    <clipPath id="t4zge6nwic">
      <path
        d="M7.25 0a7.258 7.258 0 0 1 7.25 7.25A7.25 7.25 0 1 1 7.01.004L7.25 0zm1.5 10.5h-3c-.647 0-1.179.492-1.243 1.122l-.007.128v.541l.11.06a5.7 5.7 0 0 0 5.28 0l.11-.061v-.54c0-.647-.492-1.179-1.123-1.243L8.75 10.5zm-1.5-9.013a5.75 5.75 0 0 0-4.344 9.518l.157.174.033-.138a2.753 2.753 0 0 1 2.482-2.035L5.75 9h3c1.27.002 2.34.866 2.654 2.04l.032.139.158-.174a5.75 5.75 0 0 0 1.111-5.586l-.083-.231a5.75 5.75 0 0 0-5.372-3.7z"
      />
    </clipPath>
  </defs>
  <g clip-path="url(#w8phu8dtva)" transform="translate(-994 -246)">
    <g clip-path="url(#h9igiqyppb)" transform="translate(999.25 249.75)">
      <path fill="#000" d="M0 0h5.5v5.5H0V0z" />
    </g>
    <g clip-path="url(#t4zge6nwic)" transform="translate(994.75 246.75)">
      <path fill="#000" d="M0 0h14.5v14.5H0V0z" />
    </g>
  </g>
</svg>
