<svg
  width="24"
  height="24"
  viewBox="0 0 24 24"
  xmlns="http://www.w3.org/2000/svg"
>
  <defs>
    <clipPath id="icnkk5fd8a">
      <path d="M1440 0v846H0V0h1440z" />
    </clipPath>
    <clipPath id="bsgrdz1k8b">
      <path
        d="M7.347 11.187c2.753.003 4.983 2.3 4.987 5.136L12.305 20 0 19.97v-3.647c.003-2.835 2.234-5.133 4.986-5.136zm5.667 0c2.752.003 4.983 2.3 4.986 5.136L17.972 20H13l-.015-8.784zM6.167 0c1.322 0 2.59.541 3.526 1.504a5.216 5.216 0 0 1 1.46 3.632c0 2.837-2.232 5.136-4.986 5.136-2.754 0-4.987-2.3-4.987-5.136C1.18 2.37 3.303.116 5.961.004L6.167 0zm5.666 0c2.754 0 4.987 2.3 4.987 5.136 0 2.837-2.233 5.136-5.015 5.107V.03z"
      />
    </clipPath>
    <clipPath id="g0pyj94ygc">
      <path
        d="M7.347 11.187c2.753.003 4.983 2.3 4.987 5.136L12.305 20l-1.445-.03v-3.647c-.002-1.998-1.573-3.616-3.513-3.619h-2.36c-1.94.003-3.511 1.621-3.514 3.619L1.445 20 0 19.97v-3.647c.003-2.835 2.234-5.133 4.986-5.136zm5.667 0c2.752.003 4.983 2.3 4.986 5.136L17.972 20l-1.445-.03v-3.647c-.002-1.998-1.574-3.616-3.542-3.648v-1.459zM6.167 0c1.322 0 2.59.541 3.526 1.504a5.216 5.216 0 0 1 1.46 3.632c0 2.837-2.232 5.136-4.986 5.136-2.754 0-4.987-2.3-4.987-5.136C1.18 2.37 3.303.116 5.961.004L6.167 0zm5.666 0c2.754 0 4.987 2.3 4.987 5.136 0 2.837-2.233 5.136-5.015 5.107l.028-1.488c1.94 0 3.513-1.62 3.513-3.619 0-1.998-1.573-3.618-3.541-3.648V.03zM6.167 1.518c-1.94 0-3.513 1.62-3.513 3.618 0 1.999 1.573 3.619 3.513 3.619S9.68 7.135 9.68 5.136c0-1.998-1.573-3.618-3.513-3.618z"
      />
    </clipPath>
  </defs>
  <g clip-path="url(#icnkk5fd8a)" transform="translate(-22 -181)">
    <g clip-path="url(#bsgrdz1k8b)" transform="translate(25 183)">
      <path fill="#191B23" opacity="5%" d="M0 0h18v20H0V0z" />
    </g>
    <path
      d="m38.014 193.687-.029.029v1.46c1.968.03 3.54 1.65 3.542 3.647v3.648l1.445.029.028-3.677c-.003-2.835-2.234-5.133-4.986-5.136zm-5.667 0h-2.36c-2.753.003-4.984 2.3-4.987 5.136v3.648l1.445.029.028-3.677c.003-1.998 1.574-3.616 3.513-3.619h2.361c1.94.003 3.511 1.621 3.513 3.619v3.648l1.445.029.029-3.677c-.004-2.835-2.234-5.133-4.987-5.136zm4.486-11.187-.028.03v1.458c1.968.03 3.541 1.65 3.541 3.648 0 1.999-1.573 3.619-3.513 3.619l-.028 1.488c2.782.03 5.015-2.27 5.015-5.107 0-2.836-2.233-5.136-4.987-5.136zm-5.666 0c1.322 0 2.59.541 3.526 1.504a5.216 5.216 0 0 1 1.46 3.632c0 2.837-2.232 5.136-4.986 5.136-2.754 0-4.987-2.3-4.987-5.136 0-2.766 2.123-5.02 4.781-5.132l.206-.004zm0 1.518c-1.94 0-3.513 1.62-3.513 3.618 0 1.999 1.573 3.619 3.513 3.619s3.513-1.62 3.513-3.619c0-1.998-1.573-3.618-3.513-3.618z"
      fill="rgba(0, 0, 0, 0.25)"
    />
    <g clip-path="url(#g0pyj94ygc)" transform="translate(25 183)">
      <path fill="#191B23" d="M0 0h18v20H0V0z" />
    </g>
  </g>
</svg>
