<svg width="16px" height="16px" viewBox="0 0 16 16" version="1.1" xmlns="http://www.w3.org/2000/svg" xmlns:xlink="http://www.w3.org/1999/xlink">
    <title>C63885A7-2644-4B26-8D2F-191E7A9FB073</title>
    <g id="Main" stroke="none" stroke-width="1" fill="none" fill-rule="evenodd">
        <g id="3.5.0.2.L.D.KYSDBG.Kullanici_Yonetimi_Coklu_Secim_Toplu_Islemler_Toast_Message" transform="translate(-489.000000, -270.000000)" fill="#191B24" fill-rule="nonzero">
            <g id="Group-20" transform="translate(306.000000, 189.000000)">
                <g id="Group-15" transform="translate(0.000000, 66.000000)">
                    <g id="Light/icons/16px/filter" transform="translate(183.000000, 15.000000)">
                        <path d="M3.00474791,1.74988722 L2.87949825,1.75572648 C2.24155589,1.81668561 1.75,2.3544774 1.75,3 L1.7498175,4.7889612 L1.75774465,4.93041433 L1.78266356,5.07419706 C1.8358156,5.30257557 1.95198018,5.51152551 2.11896406,5.67751524 L5.75,9.35 L5.74988722,12.9952521 L5.75572648,13.1205018 C5.81668561,13.7584441 6.3544774,14.2501128 7,14.2501128 L8.99525209,14.2501128 L9.11580388,14.2448349 L9.23764095,14.2274579 C9.82150571,14.1151408 10.25,13.6018303 10.25,13 L10.2792989,9.27827975 L13.878092,5.68066429 L13.9759671,5.57193729 C14.1518901,5.35227369 14.2488065,5.07865602 14.2501128,4.79647565 L14.2501128,3.00474791 L14.2442735,2.87949825 C14.1833144,2.24155589 13.6455226,1.74988722 13,1.74988722 L3.00474791,1.74988722 Z M12.65,3.25 L12.75,3.35 L12.7207197,4.71970162 L8.75,8.65002525 L8.75,12.65 L8.65,12.75 L7.35,12.75 L7.25,12.65 L7.2792891,8.72073571 L3.25,4.65 L3.25,3.35 L3.35,3.25 L12.65,3.25 Z" id="Fill"></path>
                    </g>
                </g>
            </g>
        </g>
    </g>
</svg>